<?xml version="1.0" encoding="UTF-8" standalone="no"?>
<!DOCTYPE svg PUBLIC "-//W3C//DTD SVG 1.1//EN"
 "http://www.w3.org/Graphics/SVG/1.1/DTD/svg11.dtd">
<!-- Generated by graphviz version 2.42.3 ()
 -->
<!-- Title: %3 Pages: 1 -->
<svg width="640pt" height="476pt"
 viewBox="0.00 0.00 640.34 476.00" xmlns="http://www.w3.org/2000/svg" xmlns:xlink="http://www.w3.org/1999/xlink">
<g id="graph0" class="graph" transform="scale(1 1) rotate(0) translate(4 472)">
<title>%3</title>
<polygon fill="white" stroke="transparent" points="-4,4 -4,-472 636.34,-472 636.34,4 -4,4"/>
<!-- [root] module.servers.aws_instance.web -->
<g id="node1" class="node">
<title>[root] module.servers.aws_instance.web</title>
<polygon fill="none" stroke="black" points="493.5,-180 244.5,-180 244.5,-144 493.5,-144 493.5,-180"/>
<text text-anchor="middle" x="369" y="-158.3" font-family="Times,serif" font-size="14.00">module.servers.aws_instance.web</text>
</g>
<!-- [root] module.servers.data.aws_ami.ubuntu -->
<g id="node2" class="node">
<title>[root] module.servers.data.aws_ami.ubuntu</title>
<polygon fill="none" stroke="black" points="375,-108 103,-108 103,-72 375,-72 375,-108"/>
<text text-anchor="middle" x="239" y="-86.3" font-family="Times,serif" font-size="14.00">module.servers.data.aws_ami.ubuntu</text>
</g>
<!-- [root] module.servers.aws_instance.web&#45;&gt;[root] module.servers.data.aws_ami.ubuntu -->
<g id="edge2" class="edge">
<title>[root] module.servers.aws_instance.web&#45;&gt;[root] module.servers.data.aws_ami.ubuntu</title>
<path fill="none" stroke="black" d="M337.2,-143.88C319.89,-134.55 298.28,-122.92 279.74,-112.94"/>
<polygon fill="black" stroke="black" points="281.39,-109.85 270.92,-108.19 278.07,-116.01 281.39,-109.85"/>
</g>
<!-- [root] module.servers.var.servers -->
<g id="node5" class="node">
<title>[root] module.servers.var.servers</title>
<polygon fill="none" stroke="black" points="599,-108 393,-108 393,-72 605,-72 605,-102 599,-108"/>
<polyline fill="none" stroke="black" points="599,-108 599,-102 "/>
<polyline fill="none" stroke="black" points="605,-102 599,-102 "/>
<text text-anchor="middle" x="499" y="-86.3" font-family="Times,serif" font-size="14.00">module.servers.var.servers</text>
</g>
<!-- [root] module.servers.aws_instance.web&#45;&gt;[root] module.servers.var.servers -->
<g id="edge3" class="edge">
<title>[root] module.servers.aws_instance.web&#45;&gt;[root] module.servers.var.servers</title>
<path fill="none" stroke="black" d="M400.8,-143.88C418.11,-134.55 439.72,-122.92 458.26,-112.94"/>
<polygon fill="black" stroke="black" points="459.93,-116.01 467.08,-108.19 456.61,-109.85 459.93,-116.01"/>
</g>
<!-- [root] module.servers.var.hash_commit -->
<g id="node4" class="node">
<title>[root] module.servers.var.hash_commit</title>
<polygon fill="none" stroke="black" points="236,-36 0,-36 0,0 242,0 242,-30 236,-36"/>
<polyline fill="none" stroke="black" points="236,-36 236,-30 "/>
<polyline fill="none" stroke="black" points="242,-30 236,-30 "/>
<text text-anchor="middle" x="121" y="-14.3" font-family="Times,serif" font-size="14.00">module.servers.var.hash_commit</text>
</g>
<!-- [root] module.servers.data.aws_ami.ubuntu&#45;&gt;[root] module.servers.var.hash_commit -->
<g id="edge4" class="edge">
<title>[root] module.servers.data.aws_ami.ubuntu&#45;&gt;[root] module.servers.var.hash_commit</title>
<path fill="none" stroke="black" d="M210.13,-71.88C194.71,-62.72 175.52,-51.34 158.9,-41.48"/>
<polygon fill="black" stroke="black" points="160.36,-38.28 149.98,-36.19 156.79,-44.3 160.36,-38.28"/>
</g>
<!-- [root] provider.aws -->
<g id="node7" class="node">
<title>[root] provider.aws</title>
<polygon fill="none" stroke="black" points="358,-36 259.8,-18 358,0 456.2,-18 358,-36"/>
<text text-anchor="middle" x="358" y="-14.3" font-family="Times,serif" font-size="14.00">provider.aws</text>
</g>
<!-- [root] module.servers.data.aws_ami.ubuntu&#45;&gt;[root] provider.aws -->
<g id="edge5" class="edge">
<title>[root] module.servers.data.aws_ami.ubuntu&#45;&gt;[root] provider.aws</title>
<path fill="none" stroke="black" d="M268.11,-71.88C285.92,-61.4 308.7,-48 326.87,-37.31"/>
<polygon fill="black" stroke="black" points="329.06,-40.08 335.9,-32 325.51,-34.05 329.06,-40.08"/>
</g>
<!-- [root] module.servers.output.ip_address -->
<g id="node3" class="node">
<title>[root] module.servers.output.ip_address</title>
<polygon fill="none" stroke="black" points="413.5,-252 162.5,-252 162.5,-216 419.5,-216 419.5,-246 413.5,-252"/>
<polyline fill="none" stroke="black" points="413.5,-252 413.5,-246 "/>
<polyline fill="none" stroke="black" points="419.5,-246 413.5,-246 "/>
<text text-anchor="middle" x="291" y="-230.3" font-family="Times,serif" font-size="14.00">module.servers.output.ip_address</text>
</g>
<!-- [root] module.servers.output.ip_address&#45;&gt;[root] module.servers.aws_instance.web -->
<g id="edge6" class="edge">
<title>[root] module.servers.output.ip_address&#45;&gt;[root] module.servers.aws_instance.web</title>
<path fill="none" stroke="black" d="M310.28,-215.7C319.92,-207.05 331.73,-196.45 342.23,-187.03"/>
<polygon fill="black" stroke="black" points="344.84,-189.39 349.94,-180.1 340.16,-184.18 344.84,-189.39"/>
</g>
<!-- [root] output.ip_address -->
<g id="node6" class="node">
<title>[root] output.ip_address</title>
<polygon fill="none" stroke="black" points="320,-324 182,-324 182,-288 326,-288 326,-318 320,-324"/>
<polyline fill="none" stroke="black" points="320,-324 320,-318 "/>
<polyline fill="none" stroke="black" points="326,-318 320,-318 "/>
<text text-anchor="middle" x="254" y="-302.3" font-family="Times,serif" font-size="14.00">output.ip_address</text>
</g>
<!-- [root] output.ip_address&#45;&gt;[root] module.servers.output.ip_address -->
<g id="edge7" class="edge">
<title>[root] output.ip_address&#45;&gt;[root] module.servers.output.ip_address</title>
<path fill="none" stroke="black" d="M263.15,-287.7C267.4,-279.64 272.56,-269.89 277.27,-260.98"/>
<polygon fill="black" stroke="black" points="280.38,-262.58 281.96,-252.1 274.19,-259.31 280.38,-262.58"/>
</g>
<!-- [root] meta.count&#45;boundary (EachMode fixup) -->
<g id="node8" class="node">
<title>[root] meta.count&#45;boundary (EachMode fixup)</title>
<ellipse fill="none" stroke="black" cx="246" cy="-378" rx="220.16" ry="18"/>
<text text-anchor="middle" x="246" y="-374.3" font-family="Times,serif" font-size="14.00">[root] meta.count&#45;boundary (EachMode fixup)</text>
</g>
<!-- [root] meta.count&#45;boundary (EachMode fixup)&#45;&gt;[root] output.ip_address -->
<g id="edge1" class="edge">
<title>[root] meta.count&#45;boundary (EachMode fixup)&#45;&gt;[root] output.ip_address</title>
<path fill="none" stroke="black" d="M247.98,-359.7C248.86,-351.98 249.92,-342.71 250.9,-334.11"/>
<polygon fill="black" stroke="black" points="254.39,-334.44 252.05,-324.1 247.43,-333.64 254.39,-334.44"/>
</g>
<!-- [root] provider.aws (close) -->
<g id="node9" class="node">
<title>[root] provider.aws (close)</title>
<ellipse fill="none" stroke="black" cx="490" cy="-306" rx="142.17" ry="18"/>
<text text-anchor="middle" x="490" y="-302.3" font-family="Times,serif" font-size="14.00">[root] provider.aws (close)</text>
</g>
<!-- [root] provider.aws (close)&#45;&gt;[root] module.servers.aws_instance.web -->
<g id="edge8" class="edge">
<title>[root] provider.aws (close)&#45;&gt;[root] module.servers.aws_instance.web</title>
<path fill="none" stroke="black" d="M479.66,-287.75C468.14,-269.16 448.45,-239.14 428,-216 418.94,-205.74 408.01,-195.46 398.04,-186.71"/>
<polygon fill="black" stroke="black" points="400.17,-183.93 390.3,-180.06 395.61,-189.24 400.17,-183.93"/>
</g>
<!-- [root] root -->
<g id="node10" class="node">
<title>[root] root</title>
<ellipse fill="none" stroke="black" cx="370" cy="-450" rx="64.19" ry="18"/>
<text text-anchor="middle" x="370" y="-446.3" font-family="Times,serif" font-size="14.00">[root] root</text>
</g>
<!-- [root] root&#45;&gt;[root] meta.count&#45;boundary (EachMode fixup) -->
<g id="edge9" class="edge">
<title>[root] root&#45;&gt;[root] meta.count&#45;boundary (EachMode fixup)</title>
<path fill="none" stroke="black" d="M342.79,-433.64C325.88,-424.09 303.86,-411.67 285.1,-401.07"/>
<polygon fill="black" stroke="black" points="286.62,-397.91 276.19,-396.04 283.18,-404.01 286.62,-397.91"/>
</g>
<!-- [root] root&#45;&gt;[root] provider.aws (close) -->
<g id="edge10" class="edge">
<title>[root] root&#45;&gt;[root] provider.aws (close)</title>
<path fill="none" stroke="black" d="M414.57,-436.92C436.08,-428.82 460.34,-415.89 475,-396 488.04,-378.31 491.29,-353.29 491.57,-334.28"/>
<polygon fill="black" stroke="black" points="495.07,-334.11 491.45,-324.15 488.07,-334.19 495.07,-334.11"/>
</g>
</g>
</svg>
